<svg width="272" height="186" viewBox="0 0 272 186" fill="none" xmlns="http://www.w3.org/2000/svg">
<g clip-path="url(#clip0_119_3145)">
<path opacity="0.1" d="M158.037 34.5669C140.599 33.9609 123.978 28.3312 108.131 22.1731C92.2836 16.0151 76.5766 9.19083 59.5473 5.92772C48.5985 3.82661 36.077 3.5311 27.2568 9.40119C18.7672 15.0484 16.025 24.7977 14.55 33.8432C13.4406 40.6499 12.797 47.8122 15.8297 54.1857C17.9408 58.6083 21.6873 62.3272 24.2792 66.5644C33.2947 81.3073 26.9213 99.4885 17.1495 113.896C12.5666 120.657 7.24995 127.091 3.71387 134.281C0.177795 141.471 -1.46002 149.707 1.6353 157.04C4.70307 164.302 12.0106 169.767 19.9292 173.606C36.0119 181.397 54.962 183.626 73.4412 184.903C114.347 187.7 155.472 186.488 196.485 185.276C211.664 184.825 226.91 184.372 241.841 182.02C250.132 180.716 258.695 178.647 264.715 173.654C272.356 167.313 274.251 156.579 269.13 148.628C260.54 135.295 236.792 131.982 230.787 117.672C227.484 109.796 230.877 101.021 235.68 93.7161C245.98 78.0467 263.25 64.2981 264.159 46.3848C264.785 34.0811 256.483 21.7624 243.646 15.9399C230.193 9.83193 211.536 10.6033 201.612 20.6981C191.391 31.0985 173.431 35.1004 158.037 34.5669Z" fill="#6C63FF"/>
<path d="M60.6668 181.571C60.6668 181.571 46.8931 171.158 44.2911 157.913C43.2359 152.35 40.4056 147.279 36.2247 143.461C34.2247 141.664 32.0645 140.055 29.7711 138.652" stroke="#535461" stroke-width="0.500861" stroke-miterlimit="10"/>
<path d="M28.0858 130.309C29.2928 131.942 29.8388 138.861 29.8388 138.861C29.8388 138.861 23.3852 136.319 22.1756 134.689C21.5948 133.905 21.3491 132.923 21.4926 131.958C21.636 130.993 22.1569 130.125 22.9407 129.544C23.7244 128.963 24.7068 128.717 25.6717 128.861C26.6366 129.004 27.5049 129.525 28.0858 130.309Z" fill="#6C63FF"/>
<path d="M39.6606 135.738C39.7858 137.764 36.4877 143.87 36.4877 143.87C36.4877 143.87 32.4482 138.225 32.3205 136.199C32.2719 135.233 32.6059 134.287 33.25 133.566C33.8942 132.844 34.7966 132.406 35.7618 132.345C36.7269 132.285 37.6771 132.607 38.4065 133.242C39.1358 133.877 39.5855 134.774 39.6581 135.738H39.6606Z" fill="#6C63FF"/>
<path d="M50.8799 151.345C49.9684 153.158 44.0357 156.764 44.0357 156.764C44.0357 156.764 43.4021 149.852 44.3137 148.039C44.7624 147.187 45.5279 146.544 46.4455 146.25C47.3631 145.957 48.3594 146.035 49.22 146.468C50.0807 146.901 50.7368 147.655 51.0472 148.567C51.3577 149.479 51.2976 150.477 50.8799 151.345Z" fill="#6C63FF"/>
<path d="M56.7124 165.059C56.1189 167 50.8824 171.555 50.8824 171.555C50.8824 171.555 49.0868 164.851 49.6804 162.908C49.9656 161.975 50.6096 161.194 51.4707 160.737C52.3318 160.279 53.3395 160.182 54.272 160.467C55.2045 160.753 55.9855 161.397 56.4432 162.258C56.9009 163.119 56.9977 164.127 56.7124 165.059Z" fill="#6C63FF"/>
<path d="M30.5174 148.779C32.5208 149.049 38.8542 146.189 38.8542 146.189C38.8542 146.189 33.5101 141.762 31.4966 141.491C30.5302 141.361 29.5518 141.621 28.7767 142.212C28.0015 142.804 27.4931 143.679 27.3632 144.645C27.2334 145.612 27.4928 146.59 28.0843 147.365C28.6758 148.141 29.551 148.649 30.5174 148.779Z" fill="#6C63FF"/>
<path d="M37.542 164.733C39.5455 164.39 44.7219 159.769 44.7219 159.769C44.7219 159.769 38.2958 157.145 36.2949 157.488C35.8158 157.566 35.357 157.739 34.9451 157.996C34.5331 158.253 34.176 158.588 33.8945 158.984C33.613 159.38 33.4126 159.827 33.3049 160.3C33.1972 160.774 33.1843 161.264 33.267 161.742C33.3496 162.22 33.5262 162.678 33.7866 163.087C34.0469 163.497 34.3858 163.851 34.7838 164.129C35.1817 164.407 35.6307 164.604 36.105 164.707C36.5793 164.811 37.0694 164.82 37.547 164.733H37.542Z" fill="#6C63FF"/>
<path d="M46.4949 179.306C48.5259 179.306 54.411 175.627 54.411 175.627C54.411 175.627 48.5234 171.954 46.4924 171.954C45.5174 171.954 44.5823 172.341 43.8928 173.03C43.2034 173.72 42.8161 174.655 42.8161 175.63C42.8161 176.605 43.2034 177.54 43.8928 178.229C44.5823 178.919 45.5174 179.306 46.4924 179.306H46.4949Z" fill="#6C63FF"/>
<path d="M194.472 91.5096C194.472 91.5096 202.961 76.4713 215.758 72.1388C221.132 70.3542 225.782 66.8755 229.011 62.2243C230.526 60.0007 231.833 57.6425 232.915 55.1797" stroke="#535461" stroke-width="0.500861" stroke-miterlimit="10"/>
<path d="M240.949 52.425C239.492 53.8374 232.708 55.2999 232.708 55.2999C232.708 55.2999 234.373 48.5633 235.83 47.1484C236.534 46.4897 237.468 46.1337 238.431 46.1568C239.395 46.18 240.311 46.5806 240.982 47.2723C241.653 47.964 242.025 48.8916 242.019 49.8553C242.013 50.819 241.629 51.7418 240.949 52.425Z" fill="#6C63FF"/>
<path d="M237.113 64.6039C235.109 64.9995 228.63 62.5403 228.63 62.5403C228.63 62.5403 233.689 57.7821 235.68 57.394C236.158 57.2879 236.653 57.2784 237.134 57.366C237.616 57.4536 238.076 57.6365 238.486 57.9041C238.896 58.1717 239.248 58.5185 239.522 58.9242C239.797 59.3299 239.987 59.7863 240.082 60.2665C240.178 60.7468 240.176 61.2413 240.078 61.721C239.98 62.2007 239.787 62.656 239.51 63.06C239.233 63.464 238.879 63.8087 238.467 64.0738C238.055 64.3389 237.595 64.5191 237.113 64.6039Z" fill="#6C63FF"/>
<path d="M223.149 77.7959C221.23 77.1323 216.87 71.733 216.87 71.733C216.87 71.733 223.632 70.1854 225.555 70.849C226.017 71.0023 226.444 71.2458 226.812 71.5655C227.179 71.8852 227.479 72.2746 227.694 72.7112C227.91 73.1478 228.036 73.6228 228.067 74.1087C228.097 74.5946 228.031 75.0817 227.871 75.5418C227.712 76.0018 227.463 76.4256 227.138 76.7886C226.814 77.1515 226.421 77.4464 225.981 77.6561C225.542 77.8658 225.065 77.9862 224.579 78.0102C224.093 78.0342 223.606 77.9614 223.149 77.7959Z" fill="#6C63FF"/>
<path d="M210.316 85.3983C208.313 85.0678 203.114 80.4723 203.114 80.4723C203.114 80.4723 209.523 77.8028 211.524 78.1333C212.487 78.2917 213.347 78.8262 213.916 79.6192C214.485 80.4122 214.716 81.3988 214.557 82.3618C214.399 83.3249 213.865 84.1856 213.072 84.7546C212.279 85.3236 211.292 85.5542 210.329 85.3958L210.316 85.3983Z" fill="#6C63FF"/>
<path d="M222.973 57.2725C222.971 59.3035 226.655 65.1961 226.655 65.1961C226.655 65.1961 230.333 59.311 230.333 57.2825C230.346 56.7918 230.261 56.3035 230.082 55.8465C229.903 55.3894 229.634 54.9728 229.292 54.6212C228.949 54.2696 228.54 53.9901 228.087 53.7993C227.635 53.6086 227.149 53.5103 226.658 53.5103C226.168 53.5103 225.682 53.6086 225.229 53.7993C224.777 53.9901 224.368 54.2696 224.025 54.6212C223.683 54.9728 223.414 55.3894 223.235 55.8465C223.056 56.3035 222.971 56.7918 222.983 57.2825L222.973 57.2725Z" fill="#6C63FF"/>
<path d="M208.09 66.3539C208.696 68.2922 213.965 72.8125 213.965 72.8125C213.965 72.8125 215.718 66.096 215.107 64.1576C214.79 63.2596 214.137 62.5195 213.286 62.0933C212.434 61.6671 211.45 61.588 210.542 61.8727C209.633 62.1573 208.87 62.7835 208.414 63.6194C207.957 64.4552 207.843 65.4356 208.095 66.3539H208.09Z" fill="#6C63FF"/>
<path d="M194.85 77.1652C195.12 79.1686 199.548 84.5203 199.548 84.5203C199.548 84.5203 202.405 78.197 202.135 76.186C202.081 75.6988 201.931 75.2272 201.692 74.799C201.453 74.3708 201.132 73.9946 200.746 73.6926C200.359 73.3907 199.917 73.1689 199.444 73.0405C198.971 72.9121 198.477 72.8796 197.991 72.9449C197.505 73.0102 197.037 73.172 196.615 73.4207C196.193 73.6695 195.824 74.0002 195.531 74.3935C195.239 74.7867 195.028 75.2345 194.911 75.7105C194.794 76.1865 194.773 76.6811 194.85 77.1652Z" fill="#6C63FF"/>
<path opacity="0.25" d="M240.949 52.425C239.492 53.8374 232.708 55.2999 232.708 55.2999C232.708 55.2999 234.373 48.5633 235.83 47.1484C236.534 46.4897 237.468 46.1337 238.431 46.1568C239.395 46.18 240.311 46.5806 240.982 47.2723C241.653 47.964 242.025 48.8916 242.019 49.8553C242.013 50.819 241.629 51.7418 240.949 52.425Z" fill="#11171D"/>
<path opacity="0.25" d="M237.113 64.6039C235.109 64.9995 228.63 62.5403 228.63 62.5403C228.63 62.5403 233.689 57.7821 235.68 57.394C236.158 57.2879 236.653 57.2784 237.134 57.366C237.616 57.4536 238.076 57.6365 238.486 57.9041C238.896 58.1717 239.248 58.5185 239.522 58.9242C239.797 59.3299 239.987 59.7863 240.082 60.2665C240.178 60.7468 240.176 61.2413 240.078 61.721C239.98 62.2007 239.787 62.656 239.51 63.06C239.233 63.464 238.879 63.8087 238.467 64.0738C238.055 64.3389 237.595 64.5191 237.113 64.6039Z" fill="#11171D"/>
<path opacity="0.25" d="M223.149 77.7959C221.23 77.1323 216.87 71.733 216.87 71.733C216.87 71.733 223.632 70.1854 225.555 70.849C226.017 71.0023 226.444 71.2458 226.812 71.5655C227.179 71.8852 227.479 72.2746 227.694 72.7112C227.91 73.1478 228.036 73.6228 228.067 74.1087C228.097 74.5946 228.031 75.0817 227.871 75.5418C227.712 76.0018 227.463 76.4256 227.138 76.7886C226.814 77.1515 226.421 77.4464 225.981 77.6561C225.542 77.8658 225.065 77.9862 224.579 78.0102C224.093 78.0342 223.606 77.9614 223.149 77.7959Z" fill="#11171D"/>
<path opacity="0.25" d="M210.316 85.3983C208.313 85.0678 203.114 80.4723 203.114 80.4723C203.114 80.4723 209.523 77.8028 211.524 78.1333C212.487 78.2917 213.347 78.8262 213.916 79.6192C214.485 80.4122 214.716 81.3988 214.557 82.3618C214.399 83.3249 213.865 84.1856 213.072 84.7546C212.279 85.3236 211.292 85.5542 210.329 85.3958L210.316 85.3983Z" fill="#11171D"/>
<path opacity="0.25" d="M222.973 57.2725C222.971 59.3035 226.655 65.1961 226.655 65.1961C226.655 65.1961 230.333 59.311 230.333 57.2825C230.346 56.7918 230.261 56.3035 230.082 55.8465C229.903 55.3894 229.634 54.9728 229.292 54.6212C228.949 54.2696 228.54 53.9901 228.087 53.7993C227.635 53.6086 227.149 53.5103 226.658 53.5103C226.168 53.5103 225.682 53.6086 225.229 53.7993C224.777 53.9901 224.368 54.2696 224.025 54.6212C223.683 54.9728 223.414 55.3894 223.235 55.8465C223.056 56.3035 222.971 56.7918 222.983 57.2825L222.973 57.2725Z" fill="#11171D"/>
<path opacity="0.25" d="M208.09 66.3539C208.696 68.2922 213.965 72.8125 213.965 72.8125C213.965 72.8125 215.718 66.096 215.107 64.1576C214.79 63.2596 214.137 62.5195 213.286 62.0933C212.434 61.6671 211.45 61.588 210.542 61.8727C209.633 62.1573 208.87 62.7835 208.414 63.6194C207.957 64.4552 207.843 65.4356 208.095 66.3539H208.09Z" fill="#11171D"/>
<path opacity="0.25" d="M194.85 77.1652C195.12 79.1686 199.548 84.5203 199.548 84.5203C199.548 84.5203 202.405 78.197 202.135 76.186C202.081 75.6988 201.931 75.2272 201.692 74.799C201.453 74.3708 201.132 73.9946 200.746 73.6926C200.359 73.3907 199.917 73.1689 199.444 73.0405C198.971 72.9121 198.477 72.8796 197.991 72.9449C197.505 73.0102 197.037 73.172 196.615 73.4207C196.193 73.6695 195.824 74.0002 195.531 74.3935C195.239 74.7867 195.028 75.2345 194.911 75.7105C194.794 76.1865 194.773 76.6811 194.85 77.1652Z" fill="#11171D"/>
<path d="M194.96 91.2119C194.96 91.2119 196.628 74.0224 206.56 64.8817C210.749 61.0722 213.591 56.0075 214.659 50.4469C215.145 47.8034 215.387 45.1209 215.383 42.4331" stroke="#535461" stroke-width="0.500861" stroke-miterlimit="10"/>
<path d="M221.608 36.6326C220.857 38.5158 215.237 42.6029 215.237 42.6029C215.237 42.6029 214.03 35.7686 214.789 33.8854C215.154 32.9811 215.864 32.259 216.762 31.8779C217.659 31.4967 218.672 31.4878 219.576 31.8531C220.48 32.2184 221.203 32.928 221.584 33.8257C221.965 34.7235 221.974 35.7358 221.608 36.6401V36.6326Z" fill="#6C63FF"/>
<path d="M223.038 49.3343C221.378 50.5013 214.449 50.8844 214.449 50.8844C214.449 50.8844 217.148 44.4884 218.809 43.3214C219.202 43.0267 219.651 42.814 220.129 42.6959C220.606 42.5778 221.102 42.5567 221.588 42.6339C222.074 42.7111 222.539 42.8849 222.957 43.1451C223.374 43.4054 223.735 43.7467 224.018 44.1489C224.301 44.5511 224.5 45.006 224.604 45.4867C224.709 45.9674 224.715 46.4641 224.624 46.9474C224.532 47.4307 224.345 47.8907 224.073 48.3003C223.8 48.7098 223.449 49.0606 223.038 49.3317V49.3343Z" fill="#6C63FF"/>
<path d="M215.611 67.0609C213.587 67.2312 207.411 64.0557 207.411 64.0557C207.411 64.0557 212.971 59.8986 214.994 59.7283C215.966 59.6466 216.931 59.9542 217.675 60.5836C218.42 61.2129 218.885 62.1123 218.966 63.084C219.048 64.0557 218.74 65.0201 218.111 65.7649C217.482 66.5098 216.582 66.9742 215.611 67.0559V67.0609Z" fill="#6C63FF"/>
<path d="M206.968 79.2047C205.002 79.7055 198.381 77.6345 198.381 77.6345C198.381 77.6345 203.157 72.5983 205.123 72.0874C206.066 71.8427 207.069 71.9829 207.909 72.4772C208.75 72.9715 209.359 73.7794 209.604 74.7232C209.849 75.667 209.709 76.6694 209.214 77.5098C208.72 78.3503 207.912 78.9599 206.968 79.2047Z" fill="#6C63FF"/>
<path d="M207.143 48.3634C207.965 50.219 213.71 54.1233 213.71 54.1233C213.71 54.1233 214.686 47.2514 213.865 45.3958C213.456 44.5275 212.723 43.8539 211.824 43.5186C210.924 43.1834 209.929 43.2132 209.052 43.6017C208.174 43.9902 207.483 44.7066 207.126 45.5977C206.77 46.4889 206.776 47.4841 207.143 48.3709V48.3634Z" fill="#6C63FF"/>
<path d="M197.216 62.6922C198.556 64.2173 205.203 66.2157 205.203 66.2157C205.203 66.2157 204.081 59.3665 202.741 57.8414C202.425 57.4708 202.038 57.1669 201.603 56.9471C201.169 56.7274 200.694 56.5962 200.209 56.5612C199.723 56.5263 199.235 56.5882 198.773 56.7435C198.311 56.8987 197.885 57.1442 197.519 57.4656C197.153 57.787 196.855 58.1779 196.641 58.6157C196.427 59.0534 196.303 59.5293 196.275 60.0156C196.246 60.5019 196.315 60.9889 196.477 61.4484C196.639 61.9079 196.89 62.3307 197.216 62.6922Z" fill="#6C63FF"/>
<path d="M189.481 77.949C190.542 79.677 196.756 82.7698 196.756 82.7698C196.756 82.7698 196.808 75.8304 195.754 74.0999C195.229 73.3009 194.414 72.7377 193.481 72.5299C192.548 72.322 191.57 72.4858 190.756 72.9864C189.941 73.4871 189.354 74.2853 189.118 75.2118C188.883 76.1382 189.017 77.12 189.493 77.949H189.481Z" fill="#6C63FF"/>
<path d="M182.188 23.893C182.604 22.3678 183.105 20.8352 183.455 19.29C183.035 20.8352 182.531 22.3728 182.188 23.893Z" fill="url(#paint0_linear_119_3145)"/>
<path d="M180.325 38.584C180.29 38.5239 180.265 38.4638 180.237 38.4087C180.237 38.3837 180.212 38.3637 180.202 38.3386C180.148 38.3644 180.092 38.3869 180.034 38.4062C179.924 38.4488 179.812 38.4889 179.696 38.5214C179.581 38.554 179.534 38.5715 179.446 38.5915C179.373 38.6166 179.299 38.6358 179.223 38.6491L179.243 38.6942C179.336 38.6742 179.426 38.6567 179.519 38.6316L179.544 38.9421C179.649 38.9421 179.746 38.9271 179.842 38.9271C179.887 38.9246 179.932 38.9246 179.977 38.9271C180.172 38.9271 180.342 38.9271 180.478 38.9271C180.425 38.8144 180.37 38.6967 180.325 38.584ZM231.162 119.506C229.985 117.92 227.636 100.906 227.636 100.906C227.636 100.906 223.016 88.8079 224.275 83.9796C225.535 79.1513 220.835 66.7975 220.835 66.7975C220.835 66.7975 217.729 65.4477 217.561 63.4443C217.561 63.4443 204.882 59.4374 204.289 56.4322C203.808 53.968 195.944 52.1999 193.119 51.6415C192.258 48.1655 191.391 44.9224 190.753 43.1519C190.58 42.6009 190.417 42.1251 190.267 41.7495C189.188 38.9947 185.852 38.7443 183.433 38.9647C183.328 38.4952 183.133 38.0504 182.859 37.6549C182.819 37.519 182.74 37.3979 182.631 37.3068C182.579 37.2626 182.524 37.2224 182.466 37.1866C182.422 37.1055 182.365 37.0326 182.296 36.9713C182.227 36.9094 182.151 36.8556 182.07 36.811C182.012 36.7795 181.952 36.7519 181.89 36.7283C181.745 36.6731 181.595 36.632 181.442 36.6056C181.264 36.569 181.083 36.5455 180.901 36.5355C181.343 36.3422 181.737 36.054 182.055 35.6916C182.272 35.4371 182.433 35.1403 182.529 34.8201C182.608 34.5538 182.644 34.2763 182.634 33.9986C182.569 34.1131 182.493 34.2212 182.408 34.3217C182.514 33.2123 181.928 32.0854 181.592 30.981C181.186 29.5432 181.11 28.0319 181.372 26.5609C181.707 24.3421 182.539 22.0982 183.102 19.8393C183.104 19.8268 183.104 19.8142 183.102 19.8017C183.398 18.6799 183.581 17.5315 183.648 16.3734C183.746 14.0368 183.147 11.7053 182.186 9.57667C181.332 7.69093 180.072 5.83524 178.144 5.06892C176.711 4.49043 175.106 4.58309 173.563 4.48793C170.102 4.27256 166.802 3.05546 163.511 1.94856C160.22 0.841659 156.835 -0.165072 153.371 0.0277596C149.908 0.220591 146.344 1.89096 144.764 4.95623C144.263 5.91287 143.975 6.9772 143.376 7.87625C142.254 9.57166 140.246 10.4206 138.571 11.5901C136.895 12.7596 135.42 14.42 134.814 16.4009C134.483 17.4681 134.437 18.6033 134.679 19.6941C134.733 19.9404 134.804 20.183 134.889 20.4203C135.127 21.082 135.498 21.688 135.979 22.2009C136.341 22.5799 136.758 22.9032 137.216 23.16C137.79 23.4785 138.405 23.7177 139.044 23.8712C139.021 23.9464 138.999 24.0265 138.974 24.1041C138.934 24.2319 138.899 24.3546 138.861 24.4923C138.779 24.8003 138.701 25.1134 138.636 25.4289C138.633 25.4514 138.633 25.4741 138.636 25.4965C138.328 26.921 138.174 28.3742 138.175 29.8315C138.174 30.5207 138.21 31.2095 138.28 31.895C139.282 42.0575 147.671 50.0738 158.037 50.5947C158.392 50.6122 158.75 50.6222 159.113 50.6222C159.279 50.6222 159.442 50.6222 159.614 50.6222C159.777 50.8376 159.937 51.058 160.09 51.2733C160.243 51.4887 160.383 51.7091 160.516 51.9245L160.153 51.5488L159.79 51.2157C159.691 51.3509 159.581 51.4774 159.462 51.5939C159.225 51.5106 158.983 51.442 158.738 51.3885C157.699 51.1581 156.116 51.073 154.032 51.7016C152.116 52.2751 149.775 53.4546 147.035 55.6959L133.685 63.7097L126.462 68.1023L123.86 74.4632C123.86 74.4632 121.905 82.0212 119.728 90.6811C119.643 90.7061 119.56 90.7312 119.478 90.7612C119.302 90.7411 119.124 90.7311 118.947 90.7312C117.684 90.7282 116.47 91.2147 115.558 92.0884C114.647 92.9621 114.109 94.1551 114.059 95.4167C109.731 100.676 109.486 105.935 110.502 108.349C110.594 108.575 110.71 108.791 110.848 108.993C111.514 109.954 112.759 112.433 114.021 115.076C113.988 115.293 113.968 115.476 113.958 115.614C113.956 115.659 113.956 115.704 113.958 115.749C113.958 115.749 114.71 127.096 112.205 130.349C111.657 131.058 111.74 131.99 112.205 133.021C113.883 136.733 120.517 141.689 120.517 141.689C120.517 141.689 128.473 141.646 132.906 141.163C132.893 141.609 132.883 142.052 132.873 142.485C132.773 146.863 132.773 150.531 132.773 150.531L132.608 155.122C132.608 155.122 131.105 164.796 130.354 167.463C129.881 169.136 130.427 184.625 130.902 196.012H209.292C210.214 189.276 208.914 168.808 208.914 168.808C208.914 168.808 207.679 163.516 207.634 158.903C207.632 158.898 207.631 158.893 207.631 158.887C207.631 158.881 207.632 158.876 207.634 158.871C207.634 158.468 207.634 158.074 207.649 157.689L208.218 157.669L209.24 157.634H209.332C209.332 157.634 209.357 157.538 209.415 157.383C209.55 156.996 209.734 156.629 209.963 156.289C210.399 155.645 211.08 155.014 212.105 154.972C212.671 154.949 213.547 154.491 214.536 153.815C214.543 153.816 214.55 153.816 214.556 153.815C217.218 152.014 220.737 148.691 221.591 148.145C222.765 147.394 228.39 142.385 228.39 142.385C228.39 142.385 229.229 141.323 230.123 140.043L230.156 139.998C231.267 138.396 232.449 136.48 232.159 135.876C231.658 134.794 232.495 132.207 232.495 132.207C235.107 127.427 232.339 121.091 231.162 119.506ZM182.737 42.4782C182.761 42.553 182.776 42.6303 182.782 42.7086C182.719 42.626 182.656 42.5383 182.594 42.4582L182.534 42.3781L182.491 42.3179L182.586 42.1877C182.586 42.1877 182.586 42.1877 182.586 42.2053C182.652 42.2864 182.703 42.3789 182.737 42.4782ZM181.895 40.2594C181.622 40.3145 181.407 40.3646 181.267 40.4022C181.089 40.0866 180.918 39.7711 180.766 39.4505C181.167 39.6834 181.545 39.9543 181.895 40.2594ZM181.424 40.6551C181.424 40.6501 181.424 40.6451 181.424 40.6401L181.444 40.6551C181.547 40.7227 181.647 40.7878 181.74 40.8554C181.822 40.9155 181.898 40.9731 181.973 41.0332C181.923 41.1209 181.868 41.211 181.812 41.2837C181.725 41.1459 181.642 41.0132 181.562 40.8755C181.512 40.8204 181.467 40.7452 181.424 40.6551ZM179.922 37.5648C180.406 37.5171 180.893 37.5171 181.377 37.5648C181.444 37.5648 181.504 37.5773 181.565 37.5873C181.7 37.6083 181.834 37.6427 181.963 37.69C182.259 38.104 182.441 38.5885 182.491 39.0949L182.356 39.1149L182.223 39.14C181.973 39.1826 181.722 39.2251 181.527 39.2652L181.277 39.3178C180.943 39.3904 180.751 39.4455 180.743 39.448C180.711 39.3804 180.678 39.3178 180.643 39.2527C180.588 39.145 180.53 39.0348 180.48 38.9271C180.43 38.8194 180.365 38.6967 180.312 38.584C180.277 38.5239 180.252 38.4638 180.225 38.4087C180.225 38.3837 180.2 38.3637 180.19 38.3386C180.175 38.312 180.163 38.2844 180.152 38.256C179.999 37.9454 179.859 37.6349 179.724 37.3294C179.709 37.2993 179.696 37.2668 179.684 37.2367L179.874 37.2242V37.2893L179.922 37.5648ZM120.172 192.917C120.151 189.188 119.881 185.153 119.13 181.367C118.809 179.757 118.479 178.146 118.143 176.564C118.058 176.168 117.975 175.777 117.893 175.387L117.121 175.489H117.051C114.948 165.57 112.749 156.83 112.749 156.83C112.749 156.83 108.381 140.154 108.887 138.824C108.952 138.651 108.87 138.185 108.684 137.502C107.627 133.71 103.215 123.262 101.672 119.691C101.672 119.676 101.66 119.658 101.655 119.646C101.404 119.047 101.224 118.644 101.169 118.526L101.532 113.197L101.552 112.877L101.6 112.196L101.58 112.178L101.6 111.862C101.6 111.862 97.7881 108.737 91.332 106.481C91.0815 106.391 90.8161 106.303 90.5531 106.218C90.8762 104.062 91.3044 101.627 91.8629 99.2558C91.9155 99.0179 91.9731 98.7875 92.0332 98.5546C92.0857 98.3217 92.1459 98.0963 92.206 97.8684C92.3011 97.4978 92.4038 97.1322 92.509 96.7715C92.8571 96.6613 93.2002 96.5386 93.5382 96.4084L93.6685 96.3583C97.8333 94.7377 101.27 91.6629 103.342 87.7031C105.414 83.7434 105.981 79.167 104.938 74.8213C104.343 72.3567 103.245 70.0418 101.712 68.0221C101.597 67.8669 101.474 67.7116 101.352 67.5588C101.229 67.4061 101.081 67.2358 100.943 67.0805C101.667 65.4352 102.521 63.87 102.591 62.2697C102.604 62.0671 102.604 61.8639 102.591 61.6612V61.6362C102.499 60.6069 102.043 59.5651 100.981 58.4707C99.4309 56.8655 97.2246 56.0516 95.0183 55.6609C92.812 55.2702 90.5631 55.2602 88.3443 54.9972C84.6655 54.5565 81.0818 53.422 77.403 53.0739C72.8717 52.6543 68.3096 53.4315 64.1728 55.3278C61.4356 56.58 58.6633 58.7687 58.498 61.7714C58.3628 64.2532 60.0908 66.6322 59.655 69.084C59.2218 71.4931 56.7675 73.3889 56.9829 75.8255C57.0656 76.7772 57.5539 77.6286 58.1649 78.3875C58.3753 78.6379 58.5982 78.8883 58.8286 79.1387C59.7201 80.0829 60.7018 80.9894 61.2002 82.179C61.2202 82.229 61.2402 82.2791 61.2578 82.3292C61.681 83.5037 61.4907 84.9888 60.4439 85.6624C60.4497 85.6669 60.454 85.673 60.4564 85.68C60.4714 85.7 60.4864 85.715 60.499 85.7351C60.5005 85.731 60.5005 85.7266 60.499 85.7225C60.8701 86.1626 61.3704 86.4745 61.9289 86.6141L62.1418 86.6792C61.969 86.867 61.8062 87.0624 61.6409 87.2677L61.5332 87.4105C61.2572 87.7815 61.0063 88.1706 60.7819 88.575C60.6542 88.8003 60.5315 89.0257 60.4288 89.2511C60.0856 89.9381 59.837 90.6685 59.6901 91.4223C59.4221 93.0802 59.8003 94.8082 59.3946 96.431C58.8937 98.4344 57.3085 99.972 56.4144 101.833C54.7215 105.339 55.6807 109.453 56.0213 113.325C56.4846 118.584 55.7333 123.866 54.9845 129.09C54.5871 131.868 54.1898 134.648 53.7924 137.431C52.7907 144.417 51.789 151.402 50.7873 158.387C50.4216 160.947 49.9884 163.646 48.283 165.622H48.3005C48.3005 165.622 48.3005 165.637 48.283 165.642C48.7949 165.866 49.3394 166.007 49.8957 166.058C52.1221 166.281 54.4811 165.204 56.4846 164.027C58.0711 163.11 59.5737 162.055 60.9748 160.874C60.7694 161.626 60.549 162.444 60.3136 163.326C60.3144 163.334 60.3144 163.343 60.3136 163.351C57.4863 174.119 52.9385 193.861 52.9385 193.861C52.9385 193.861 52.5253 194.72 51.9893 196H122.611C121.784 194.998 121.015 194.039 120.414 193.265L120.172 192.917ZM67.8816 93.3456C67.8992 93.3156 67.9117 93.2881 67.9292 93.2605C67.9292 93.3406 67.9292 93.4183 67.9292 93.4934C67.9292 93.5685 67.9292 93.6362 67.9292 93.7063C67.9292 93.7764 67.9292 93.7689 67.9292 93.8039C67.9292 93.9066 67.9067 94.0093 67.8892 94.112C67.8892 94.112 67.8892 94.1245 67.8892 94.1345L68.1396 94.2272L68.4301 94.3474C70.1464 95.0252 71.8844 95.6388 73.6441 96.188C73.8244 96.2456 74.0072 96.3007 74.19 96.3533L74.2276 96.6639C74.2726 96.9819 74.3152 97.305 74.3553 97.628C74.3553 97.628 74.3553 97.643 74.3553 97.6531C74.468 98.5471 74.5782 99.4386 74.6758 100.31C74.6758 100.31 70.0779 98.5571 70.1355 101.219C70.1329 101.267 70.1329 101.314 70.1355 101.362C70.1304 101.425 70.1304 101.489 70.1355 101.552C70.1781 103.626 70.8267 104.855 70.9569 105.487C70.9491 105.513 70.9354 105.537 70.9169 105.557C70.8058 105.798 70.7675 106.067 70.8067 106.33C70.8023 106.778 70.8375 107.226 70.9119 107.668C70.7766 107.75 70.6439 107.833 70.5112 107.918C70.411 107.981 70.3158 108.051 70.2182 108.121C69.6038 105.99 68.8001 103.918 67.8165 101.93C67.1278 100.513 66.354 99.0354 66.3615 97.4803C66.3615 97.3801 66.3615 97.2774 66.3741 97.1747C66.402 96.724 66.4878 96.2787 66.6295 95.85C66.6871 95.6872 66.7497 95.5269 66.8198 95.3691C66.9835 94.9942 67.1665 94.6281 67.3683 94.2722C67.4985 94.0368 67.6362 93.8039 67.7689 93.5685C67.8115 93.4984 67.8516 93.4258 67.8917 93.3557L67.8816 93.3456ZM180.325 38.584C180.29 38.5239 180.265 38.4638 180.237 38.4087C180.237 38.3837 180.212 38.3637 180.202 38.3386C180.148 38.3644 180.092 38.3869 180.034 38.4062C179.924 38.4488 179.812 38.4889 179.696 38.5214C179.581 38.554 179.534 38.5715 179.446 38.5915L179.223 38.6491L179.243 38.6942C179.336 38.6742 179.426 38.6567 179.519 38.6316L179.544 38.9421C179.649 38.9421 179.746 38.9271 179.842 38.9271H179.977C180.172 38.9271 180.342 38.9271 180.478 38.9271C180.425 38.8144 180.37 38.6967 180.325 38.584Z" fill="url(#paint1_linear_119_3145)"/>
<path d="M125.606 75.3674L124.103 76.031C124.103 76.031 114.309 114.081 114.309 117.157C114.309 120.232 135.077 137.344 135.077 137.344L138.318 115.471C138.318 115.471 133.665 65.3126 125.606 75.3674Z" fill="#E8F5FF"/>
<path d="M171.162 63.2635L162.484 58.7357C161.998 56.6638 161.136 54.6987 159.94 52.9382C158.67 51.1051 156.982 49.3045 154.879 48.3654C149.562 45.9813 177.367 33.4673 177.367 33.4673C177.805 34.9706 178.321 36.4501 178.912 37.8999C180.345 41.436 182.722 46.0088 185.784 47.3111C190.991 49.5274 171.162 63.2635 171.162 63.2635Z" fill="#FFC1C7"/>
<path opacity="0.1" d="M178.912 37.8999C177.724 42.0783 175.254 45.7779 171.849 48.4763C168.445 51.1747 164.279 52.7355 159.94 52.9382C158.67 51.1051 156.982 49.3045 154.879 48.3654C149.562 45.9813 177.367 33.4673 177.367 33.4673C177.805 34.9706 178.321 36.4501 178.912 37.8999Z" fill="#11171D"/>
<path d="M179.694 31.5815C179.695 35.6795 178.48 39.6857 176.204 43.0935C173.928 46.5013 170.693 49.1575 166.907 50.7263C163.121 52.2951 158.955 52.706 154.936 51.9069C150.917 51.1079 147.225 49.1348 144.327 46.2373C141.429 43.3398 139.455 39.6479 138.656 35.6287C137.856 31.6095 138.267 27.4434 139.835 23.6574C141.403 19.8715 144.059 16.6356 147.467 14.3591C150.874 12.0827 154.88 10.8679 158.978 10.8684C161.702 10.8558 164.401 11.3829 166.92 12.4194C169.439 13.4558 171.727 14.981 173.654 16.9069C175.58 18.8327 177.105 21.1211 178.142 23.6399C179.179 26.1586 179.706 28.8578 179.694 31.5815Z" fill="#FFC1C7"/>
<path d="M182.684 60.6044L177.034 73.787L172.051 82.5371H156.098L151.445 70.574L153.331 58.1677H165.514L173.38 57.7244L176.038 56.8379L177.75 57.8096L182.684 60.6044Z" fill="#575A89"/>
<path opacity="0.1" d="M180.738 43.0314C180.738 43.0314 184.262 43.7826 181.106 46.3696C177.951 48.9565 167.065 57.1832 167.065 57.1832C167.065 57.1832 170.889 60.589 170.097 64.5784L182.767 57.5163L185.021 46.2168C185.021 46.2168 185.273 42.821 180.738 43.0314Z" fill="#11171D"/>
<path opacity="0.1" d="M169.556 57.1826L161.498 58.5124C161.498 58.5124 163.16 64.6605 162.329 66.406C162.304 66.4602 162.283 66.5163 162.266 66.5738L158.978 75.4615L161.442 82.441L169.972 70.8085L167.065 66.406C167.065 66.406 170.137 62.334 171.966 60.9215C173.794 59.5091 169.556 57.1826 169.556 57.1826Z" fill="#11171D"/>
<path d="M169.556 56.8398L161.498 58.1671C161.498 58.1671 163.16 64.3152 162.329 66.0607C162.304 66.1149 162.283 66.171 162.266 66.2285L158.978 75.1162L161.442 82.0958L169.972 70.4557L167.065 66.0532C167.065 66.0532 170.137 61.9812 171.966 60.5687C173.794 59.1563 169.556 56.8398 169.556 56.8398Z" fill="#DCE6F2"/>
<path d="M181.076 42.3673C181.076 42.3673 184.6 43.1186 181.442 45.7055C178.284 48.2925 167.065 57.1828 167.065 57.1828C167.065 57.1828 171.219 59.925 170.43 63.9118L183.1 56.8522L185.354 45.5528C185.354 45.5528 185.604 42.1569 181.076 42.3673Z" fill="#575A89"/>
<path opacity="0.1" d="M160.493 53.7222C160.493 53.7222 161.262 55.1596 164.655 57.7516C164.655 57.7516 159.006 60.7568 161.167 64.9815L152.525 62.7277L151.195 58.573L160.493 53.7222Z" fill="#11171D"/>
<path d="M160.16 53.3916C160.16 53.3916 160.929 54.8291 164.322 57.421C164.322 57.421 158.673 60.4112 160.834 64.6485L152.194 62.3946L150.864 58.2424L160.16 53.3916Z" fill="#575A89"/>
<path opacity="0.1" d="M182.684 60.6039L177.034 73.7865L172.061 82.5366H156.098L151.445 70.5735L153.328 58.1672H156.717C156.662 61.0622 157.719 64.463 157.651 65.7277C157.536 67.8063 160.751 79.0205 160.751 79.0205C160.751 79.0205 167.48 68.1368 170.137 67.1677C171.808 66.5591 175.346 61.4954 177.748 57.8091L182.684 60.6039Z" fill="#11171D"/>
<path d="M204.94 129.976L204.366 130.697C204.366 130.697 208.521 151.55 207.371 156.286C207.176 157.14 207.064 158.01 207.038 158.885V158.923C206.836 163.741 208.291 169.995 208.291 169.995C208.291 169.995 209.452 188.426 208.791 196.007H131.003C130.547 184.797 130.056 170.275 130.502 168.665C131.253 166.008 132.756 156.369 132.756 156.369L132.921 151.801C132.921 151.801 132.921 147.386 133.056 142.467C133.114 140.256 133.199 137.934 133.322 135.876C133.479 133.286 133.7 131.105 134.003 130.033C134.189 129.221 134.297 128.392 134.323 127.559C134.323 127.481 134.323 127.401 134.338 127.321C134.338 127.071 134.363 126.8 134.373 126.522C134.373 126.445 134.373 126.367 134.373 126.272C134.421 124.659 134.404 122.746 134.351 120.762C134.351 120.655 134.351 120.545 134.351 120.434C134.308 118.947 134.246 117.429 134.176 115.987C133.958 111.479 133.675 107.667 133.675 107.667L124.121 76.013L126.695 69.6721L133.84 65.2946L147.05 57.3183C153.494 52.0217 157.736 52.6578 159.354 53.2388C159.511 53.2924 159.665 53.3552 159.815 53.4267C159.865 53.4517 159.905 53.4717 159.942 53.4943C159.994 53.5186 160.043 53.5471 160.09 53.5794C159.647 53.7925 159.262 54.1096 158.968 54.5035C158.637 54.9518 158.401 55.4632 158.275 56.0061C158.19 56.3426 158.131 56.685 158.097 57.0304C158.064 57.3935 158.052 57.7691 158.052 58.1473C158.07 58.9766 158.141 59.8038 158.265 60.624C158.265 60.639 158.265 60.6591 158.265 60.6791C158.347 61.2651 158.45 61.8386 158.55 62.377C158.549 62.3862 158.549 62.3954 158.55 62.4046C158.665 63.0332 158.78 63.6142 158.858 64.115C158.873 64.2052 158.886 64.2878 158.898 64.3655C158.953 64.6964 158.979 65.0316 158.976 65.3672C159.004 66.1774 159.113 66.9828 159.301 67.7713C159.366 68.1019 159.442 68.455 159.524 68.8231C159.637 69.324 159.76 69.8699 159.892 70.4259C159.965 70.7314 160.043 71.0469 160.123 71.36C160.153 71.4852 160.185 71.6104 160.215 71.7381L160.265 71.936C160.799 74.0571 161.377 76.1682 161.733 77.4454C161.943 78.1967 162.076 78.66 162.076 78.66C162.076 78.66 165.848 72.562 168.858 69.0911C168.903 69.041 168.943 68.9934 168.985 68.9483C169.283 68.6052 169.576 68.2922 169.857 68.0167C170.471 67.4057 171.021 66.9699 171.465 66.8097C171.559 66.775 171.651 66.7323 171.738 66.6819C172.97 65.9832 174.958 63.4464 176.819 60.7893C177.002 60.5389 177.18 60.2659 177.36 60.008C177.773 59.4119 178.174 58.8134 178.552 58.2399C178.842 57.8017 179.12 57.3759 179.383 56.9702C180.635 55.0219 181.517 53.5694 181.517 53.5694L183.255 53.4918L183.558 53.4767H183.761L191.652 53.1111C191.652 53.1111 191.993 53.1687 192.553 53.2814C192.584 53.2814 192.614 53.2814 192.646 53.3014C195.446 53.8574 203.224 55.6179 203.7 58.0596C204.281 61.0498 216.828 65.0391 216.828 65.0391C216.993 67.0426 220.066 68.3623 220.066 68.3623C220.066 68.3623 224.719 80.6585 223.474 85.4767C222.244 90.2349 226.675 102.005 226.792 102.336L225.943 103.408L204.94 129.976Z" fill="#E8F5FF"/>
<path opacity="0.1" d="M180.736 42.1575C180.736 42.1575 188.416 39.9787 190.162 44.4639C191.907 48.9492 195.812 67.0628 195.812 67.0628C195.812 67.0628 185.674 68.9736 183.017 67.0628C181.458 65.9288 179.529 65.4244 177.615 65.6504L171.883 69.5546L170.19 69.0537C170.19 69.0537 179.361 55.4203 181.354 50.7873C183.348 46.1544 184.021 44.0833 180.736 42.1575Z" fill="#11171D"/>
<path d="M180.403 41.1555C180.403 41.1555 188.088 38.9768 189.841 43.462C191.594 47.9472 195.491 66.0608 195.491 66.0608C195.491 66.0608 185.356 67.9716 182.697 66.0608C181.139 64.9267 179.211 64.4223 177.297 64.6484L171.56 68.5526L169.867 68.0518C169.867 68.0518 179.038 54.4183 181.031 49.7854C183.025 45.1524 183.688 43.0863 180.403 41.1555Z" fill="#E8F5FF"/>
<path opacity="0.1" d="M128.846 113.418C128.846 113.418 134.579 114.83 135.661 118.071C136.743 121.312 131.423 121.394 131.423 121.394C131.423 121.394 128.183 115.662 128.846 113.418Z" fill="#11171D"/>
<path opacity="0.1" d="M150.198 137.343C150.198 137.343 136.159 166.09 139.4 168.832C142.64 171.575 150.198 137.343 150.198 137.343Z" fill="#11171D"/>
<path opacity="0.1" d="M169.556 116.159C169.556 116.159 180.773 144.082 178.529 148.395C176.285 152.707 183.348 148.395 183.348 148.395L169.556 116.159Z" fill="#11171D"/>
<path d="M185.176 143.742C185.176 143.742 147.291 145.57 158.342 157.368C169.394 169.165 192.073 157.868 192.073 157.868L185.176 143.742Z" fill="#FFC1C7"/>
<path opacity="0.1" d="M179.694 31.5812C179.697 34.2984 179.164 36.9895 178.124 39.4998C177.776 39.5399 177.427 39.5649 177.092 39.5799C176.591 38.4805 176.859 37.2109 176.869 36.0013C176.879 34.7917 176.433 33.3693 175.269 33.0437C172.947 32.3901 171.345 36.73 169.056 35.9462C167.303 35.3502 167.761 32.6906 166.752 31.1554C165.953 29.9409 164.352 29.5978 163.108 28.8365C160.461 27.2112 160.541 24.6117 159.311 22.1525C158.024 19.5755 155.304 20.3369 152.943 21.857C151.15 23.014 149.602 24.5641 147.684 25.4857C146.023 26.2871 144.158 26.5776 142.317 26.6202C141.184 26.6641 140.05 26.5443 138.951 26.2645C140.244 21.4047 143.26 17.1809 147.437 14.3808C151.615 11.5807 156.668 10.3956 161.654 11.0463C166.641 11.6971 171.221 14.1393 174.539 17.9176C177.858 21.6959 179.689 26.5523 179.691 31.5812H179.694Z" fill="#11171D"/>
<path d="M152.95 21.1935C151.155 22.3505 149.61 23.8982 147.691 24.8248C146.031 25.6237 144.165 25.9142 142.325 25.9567C140.071 26.0068 137.644 25.6111 136.104 23.9833C134.689 22.4808 134.351 20.1693 134.949 18.1984C135.548 16.2275 136.983 14.5922 138.668 13.4077C140.354 12.2231 142.31 11.4042 143.427 9.7088C144.018 8.81226 144.303 7.75545 144.794 6.80131C146.364 3.74856 149.895 2.09572 153.308 1.89037C156.722 1.68501 160.105 2.70176 163.356 3.80365C166.606 4.90555 169.882 6.11763 173.313 6.34552C174.84 6.44069 176.428 6.34552 177.846 6.92402C179.751 7.69785 181.001 9.54853 181.853 11.4318C182.807 13.5554 183.4 15.8744 183.3 18.1934C183.09 23.1444 179.819 28.0027 181.257 32.7459C181.637 34.0106 182.351 35.3078 181.97 36.5725C181.414 38.4181 179.033 38.8389 177.107 38.9265C176.606 37.8271 176.874 36.5549 176.884 35.3479C176.894 34.1408 176.448 32.7158 175.286 32.3903C172.962 31.7417 171.36 36.0741 169.076 35.2928C167.335 34.6942 167.786 32.0372 166.774 30.502C165.975 29.285 164.373 28.9444 163.13 28.1831C160.483 26.5578 160.563 23.9583 159.334 21.4991C158.037 18.9096 155.314 19.6709 152.95 21.1935Z" fill="#99607E"/>
<path d="M116.215 116.49L114.304 117.157C114.304 117.157 115.055 128.456 112.551 131.697C110.047 134.937 120.775 142.993 120.775 142.993C120.775 142.993 135.48 142.911 135.896 141.741C136.312 140.572 135.145 120.805 135.145 120.805C135.145 120.805 127.251 117.73 127.915 112.829C127.915 112.829 125.506 124.376 121.935 123.878C118.363 123.38 114.309 120.397 116.215 116.49Z" fill="#E8F5FF"/>
<path opacity="0.1" d="M122.588 127.374C125.372 127.374 127.629 125.31 127.629 122.763C127.629 120.217 125.372 118.153 122.588 118.153C119.804 118.153 117.547 120.217 117.547 122.763C117.547 125.31 119.804 127.374 122.588 127.374Z" fill="#11171D"/>
<path d="M128.1 116.823C128.1 116.823 127.098 86.25 118.378 93.0617C109.658 99.8734 109.573 108.02 111.234 110.427C112.894 112.833 118.218 124.881 118.218 124.881C119.051 125.364 119.986 125.643 120.947 125.694C121.909 125.746 122.868 125.569 123.748 125.178C124.628 124.787 125.402 124.193 126.008 123.445C126.614 122.697 127.034 121.816 127.234 120.875L128.1 116.823Z" fill="#FFC1C7"/>
<path opacity="0.1" d="M182.496 39.3823C182.455 39.248 182.377 39.1281 182.271 39.0367C181.84 38.6436 180.913 38.5058 179.516 38.626L179.574 39.2872C181.437 39.1269 181.805 39.4975 181.853 39.5601V39.6227L181.91 39.7054C182.142 40.0176 182.307 40.3749 182.393 40.7544C182.479 41.1339 182.486 41.5272 182.411 41.9092C182.003 43.9502 179.496 45.5755 179.471 45.593L179.411 45.6281L179.373 45.6857C178.291 47.2909 172.173 51.8212 170.573 52.9932L170.433 52.833C169.717 53.454 163.421 58.966 163.08 61.0771C162.86 62.4019 161.367 62.9153 160.826 63.058C160.255 62.6248 158.402 61.1497 157.438 59.4969C156.534 57.9417 160.173 54.9065 160.493 53.722L159.992 53.2086C159.94 53.3989 155.267 57.7664 156.567 59.9978C157.608 61.7883 159.512 63.321 160.178 63.8268C159.965 65.7602 158.64 77.1122 156.604 79.8018C154.075 83.1451 151.949 99.994 152.184 105.877C152.392 111.103 151.027 120.975 146.469 125.215C145.68 125.981 144.728 126.559 143.684 126.906C142.641 127.253 141.532 127.36 140.441 127.218H140.386H140.331C140.266 127.218 133.655 127.894 128.1 123.211C123.555 119.387 120.98 113.147 120.444 104.657H120.334L120.289 102.185C121.522 101.993 122.631 101.33 123.386 100.337C124.14 99.3434 124.48 98.0963 124.333 96.8575C124.187 95.6188 123.567 94.4849 122.602 93.6941C121.638 92.9033 120.404 92.5171 119.161 92.6168C117.917 92.7164 116.761 93.2941 115.935 94.2284C115.108 95.1627 114.676 96.381 114.729 97.6272C114.782 98.8734 115.316 100.05 116.219 100.911C117.122 101.772 118.323 102.249 119.57 102.243H119.626L119.671 104.7L119.45 104.715C120.001 113.48 122.706 119.963 127.464 123.968C131.081 126.965 135.7 128.476 140.389 128.198C140.721 128.234 141.056 128.252 141.39 128.253C143.54 128.264 145.607 127.432 147.15 125.936C151.951 121.466 153.411 111.231 153.183 105.827C152.933 99.5933 155.164 83.3504 157.403 80.3928C159.597 77.4903 160.927 66.1809 161.159 63.9896C161.953 63.7667 163.749 63.063 164.054 61.2349C164.275 59.9126 168.48 55.8381 171.067 53.5817L170.989 53.4916C172.381 52.4748 176.711 49.2693 178.857 47.2108C179.524 46.5722 180.185 45.9336 180.876 45.325C181.707 44.5888 182.764 43.4193 183.042 42.0369C183.137 41.5806 183.137 41.1097 183.043 40.6532C182.95 40.1967 182.763 39.7642 182.496 39.3823Z" fill="#11171D"/>
<path d="M160.093 63.67C159.987 63.5974 157.493 61.8118 156.243 59.6631C154.946 57.4318 159.619 53.0668 159.669 52.8765L160.17 53.3899C159.852 54.5719 156.213 57.6096 157.117 59.1623C158.257 61.1231 160.656 62.8386 160.681 62.8561L160.093 63.67Z" fill="#353146"/>
<path d="M170.248 53.4801L169.857 52.9417C169.937 52.8841 177.803 47.1943 179.043 45.3536L179.083 45.2985L179.14 45.261C179.165 45.2434 181.672 43.6207 182.08 41.5771C182.156 41.1956 182.15 40.8025 182.064 40.4233C181.977 40.0441 181.813 39.6873 181.58 39.3759L181.522 39.2907V39.2306C181.472 39.1655 181.104 38.7974 179.241 38.9576L179.183 38.294C180.583 38.1738 181.507 38.3115 181.938 38.7047C182.045 38.797 182.124 38.9176 182.166 39.0528C182.436 39.4336 182.626 39.8658 182.724 40.3227C182.821 40.7797 182.824 41.2518 182.732 41.7099C182.454 43.0947 181.399 44.2643 180.565 44.998C179.877 45.6066 179.213 46.2502 178.549 46.8838C176.033 49.2954 170.523 53.2823 170.248 53.4801Z" fill="#E8F5FF"/>
<path d="M119.966 101.314L119.303 101.326L119.376 105.359L120.04 105.347L119.966 101.314Z" fill="#E8F5FF"/>
<path d="M119.247 101.926C121.924 101.926 124.093 99.756 124.093 97.0797C124.093 94.4034 121.924 92.2339 119.247 92.2339C116.571 92.2339 114.402 94.4034 114.402 97.0797C114.402 99.756 116.571 101.926 119.247 101.926Z" fill="#6C63FF"/>
<path d="M119.247 101.104C121.47 101.104 123.272 99.3022 123.272 97.0796C123.272 94.857 121.47 93.0552 119.247 93.0552C117.025 93.0552 115.223 94.857 115.223 97.0796C115.223 99.3022 117.025 101.104 119.247 101.104Z" fill="#E8F5FF"/>
<path d="M141.075 127.929C140.74 127.93 140.406 127.912 140.073 127.877C135.385 128.153 130.766 126.641 127.149 123.647C122.39 119.64 119.691 113.164 119.135 104.391L120.136 104.329C120.672 112.818 123.247 119.061 127.795 122.883C133.349 127.553 139.958 126.89 140.023 126.89H140.078H140.133C141.224 127.03 142.333 126.923 143.377 126.577C144.421 126.23 145.374 125.652 146.164 124.886C150.719 120.647 152.084 110.775 151.876 105.548C151.626 99.6605 153.752 82.8116 156.284 79.4708C158.5 76.5433 159.875 63.3481 159.89 63.2154L159.927 62.8397L160.298 62.7746C160.321 62.7746 162.484 62.3639 162.755 60.7461C163.105 58.6375 169.391 53.1255 170.105 52.502L170.758 53.2532C168.162 55.5071 163.957 59.5841 163.746 60.9089C163.441 62.7421 161.645 63.4433 160.854 63.6636C160.604 65.8574 159.284 77.1643 157.098 80.0668C154.859 83.0244 152.627 99.2673 152.878 105.501C153.093 110.905 151.648 121.142 146.847 125.61C145.302 127.11 143.229 127.943 141.075 127.929Z" fill="#353146"/>
<g opacity="0.1">
<path d="M181.827 25.661C182.238 24.1434 182.734 22.6158 183.08 21.0781C182.666 22.6233 182.168 24.1434 181.827 25.661Z" fill="#11171D"/>
<path d="M177.638 37.5866C177.137 36.4873 177.405 35.2151 177.415 34.008C177.425 32.8009 176.979 31.3885 175.817 31.0504C173.493 30.4018 171.89 34.7368 169.607 33.9529C167.854 33.3544 168.317 30.6973 167.305 29.1622C166.506 27.9451 164.906 27.6045 163.664 26.8432C161.014 25.2179 161.094 22.6184 159.867 20.1592C158.578 17.5798 155.86 18.3411 153.496 19.8637C151.701 21.0207 150.156 22.5708 148.237 23.4949C146.577 24.2938 144.711 24.5843 142.871 24.6269C140.629 24.6795 138.19 24.2813 136.65 22.6535C135.463 21.4013 135.035 19.5657 135.28 17.8452C135.237 17.9629 135.2 18.0806 135.162 18.1983C134.561 20.1692 134.912 22.4857 136.317 23.9833C137.857 25.6111 140.296 26.0067 142.538 25.9567C144.381 25.9141 146.244 25.6236 147.907 24.8247C149.83 23.8981 151.375 22.3505 153.166 21.1935C155.53 19.6709 158.25 18.9095 159.537 21.489C160.764 23.9482 160.686 26.5477 163.333 28.173C164.585 28.9243 166.176 29.2749 166.977 30.492C167.979 32.0321 167.535 34.6842 169.278 35.2827C171.56 36.064 173.163 31.7316 175.487 32.3802C176.649 32.7058 177.097 34.1332 177.084 35.3378C177.072 36.5424 176.811 37.817 177.307 38.9164C179.233 38.8288 181.615 38.4156 182.173 36.5624C182.25 36.2964 182.286 36.0202 182.278 35.7435C181.464 37.1484 179.371 37.509 177.638 37.5866Z" fill="#11171D"/>
</g>
<path opacity="0.1" d="M222.898 99.293L225.806 102.368C225.806 102.368 228.132 119.315 229.294 120.9C230.456 122.485 233.201 128.791 230.624 133.527C230.624 133.527 229.792 136.104 230.291 137.183C230.789 138.262 226.554 143.664 226.554 143.664C226.554 143.664 220.987 148.648 219.823 149.397C218.658 150.145 212.513 156.126 210.437 156.208C208.361 156.291 207.682 158.868 207.682 158.868L195.967 159.284C195.967 159.284 189.496 158.946 188.088 159.86C188.088 159.86 188.84 149.973 181.61 143.491L190.83 140.168C190.83 140.168 194.321 138.666 195.401 137.095C196.08 136.133 197.043 135.407 198.156 135.019C198.156 135.019 200.73 133.191 200.813 132.195C200.895 131.198 203.961 129.976 203.961 129.976L202.225 115.163L203.139 90.5705C203.139 90.5705 206.047 69.9651 212.195 71.1296C218.343 72.2941 222.898 99.293 222.898 99.293Z" fill="#11171D"/>
<path d="M223.9 99.293L226.807 102.368C226.807 102.368 229.134 119.315 230.296 120.9C231.458 122.485 234.203 128.791 231.626 133.527C231.626 133.527 230.797 136.104 231.295 137.183C231.793 138.262 227.556 143.664 227.556 143.664C227.556 143.664 221.989 148.648 220.825 149.397C219.66 150.145 213.515 156.126 211.438 156.208C209.362 156.291 208.684 158.868 208.684 158.868L196.969 159.284C196.969 159.284 190.492 158.946 189.09 159.86C189.09 159.86 189.841 149.973 182.611 143.491L191.832 140.168C191.832 140.168 195.323 138.666 196.403 137.095C197.082 136.133 198.045 135.407 199.157 135.019C199.157 135.019 201.732 133.191 201.814 132.195C201.897 131.198 204.962 129.976 204.962 129.976L203.227 115.163L204.141 90.5705C204.141 90.5705 207.048 69.9651 213.196 71.1296C219.345 72.2941 223.9 99.293 223.9 99.293Z" fill="#E8F5FF"/>
<path opacity="0.1" d="M213.091 124.135C213.091 124.135 221.649 121.882 223.892 124.636C226.136 127.391 213.091 124.135 213.091 124.135Z" fill="#11171D"/>
<path opacity="0.1" d="M211.098 127.915C214.005 129.951 222.978 130.033 222.978 130.033L211.098 127.915Z" fill="#11171D"/>
<path opacity="0.1" d="M215.5 138.092C215.751 138.174 221.668 144.49 224.153 142.58C226.637 140.669 215.5 138.092 215.5 138.092Z" fill="#11171D"/>
<path opacity="0.1" d="M135.803 85.0864C135.803 85.0864 137.541 97.052 136.685 101.925C135.828 106.799 138.954 112.837 138.954 112.837L135.803 85.0864Z" fill="#11171D"/>
<path d="M97.3272 89.9524C95.3238 91.5226 93.8613 95.239 92.802 99.3235C90.9538 106.448 90.3503 114.71 90.3503 114.71C90.3503 114.71 74.3978 111.054 75.5598 109.393C76.2911 108.349 75.3094 100.48 74.4905 94.7757C74.0022 91.4049 73.5664 88.7879 73.5664 88.7879C73.5664 88.7879 102.812 85.6299 97.3272 89.9524Z" fill="#FFCCD0"/>
<path opacity="0.1" d="M97.3272 89.6188C95.3238 91.1915 93.8613 94.9054 92.802 98.9899C89.6236 99.955 86.2434 100.042 83.0196 99.2418C79.7958 98.4416 76.8486 96.7839 74.4905 94.4446C74.0022 91.0713 73.5664 88.4543 73.5664 88.4543C73.5664 88.4543 102.812 85.2989 97.3272 89.6188Z" fill="#11171D"/>
<path d="M105.902 80.6684C105.904 85.0242 104.364 89.2401 101.556 92.5701C98.7485 95.9 94.8531 98.1292 90.5596 98.8632C86.2661 99.5972 81.8514 98.7887 78.0967 96.5806C74.3421 94.3726 71.4896 90.9075 70.0442 86.7985C68.5987 82.6895 68.6535 78.2017 70.1988 74.1293C71.7441 70.0568 74.6803 66.6623 78.4877 64.5466C82.2951 62.4308 86.7283 61.7303 91.0026 62.5688C95.2769 63.4074 99.1167 65.7311 101.843 69.1286C104.469 72.4013 105.901 76.4719 105.902 80.6684Z" fill="#FFCCD0"/>
<path opacity="0.1" d="M120.447 196.008H115.188L114.745 186.719L114.281 177.105C114.281 177.105 115.476 176.927 117.379 176.662L118.148 176.559H118.211C118.626 178.51 119.037 180.513 119.433 182.514C120.091 186.067 120.434 189.67 120.457 193.283C120.457 193.533 120.457 193.784 120.457 194.019C120.472 194.688 120.457 195.356 120.447 196.008Z" fill="#11171D"/>
<path d="M119.438 196.006H53.4844C53.7699 195.358 53.9602 194.965 53.9602 194.965C53.9602 194.965 59.2368 171.88 61.9189 162.113C61.9197 162.105 61.9197 162.096 61.9189 162.088C62.254 160.761 62.6586 159.453 63.131 158.169C63.1615 158.082 63.2009 157.998 63.2487 157.918C64.576 155.76 66.2388 153.433 63.9123 150.11C61.5858 146.787 62.4097 132.164 62.4097 132.164C62.4097 132.164 65.2346 119.7 68.2247 113.054C68.6785 112.024 69.3226 111.09 70.123 110.299C70.3832 110.044 70.6611 109.808 70.9544 109.593C71.1775 109.425 71.4099 109.271 71.6506 109.13L71.6982 109.1C72.9543 108.387 74.3492 107.954 75.7877 107.83C76.8096 107.723 77.8411 107.752 78.8555 107.915C83.7038 108.626 87.5855 109.816 90.6708 111.171C99.0327 114.844 101.565 119.768 101.615 119.871L101.635 119.913C101.97 120.697 106.879 132.157 108.647 137.503C109.105 138.896 109.355 139.875 109.255 140.143C108.754 141.47 113.077 158.086 113.077 158.086C113.077 158.086 115.08 166.1 117.084 175.494C117.171 175.884 117.254 176.275 117.334 176.671C117.692 178.376 118.048 180.114 118.391 181.85C119.056 185.426 119.398 189.055 119.415 192.693C119.452 193.827 119.459 194.931 119.438 196.006Z" fill="#FF748E"/>
<path opacity="0.1" d="M75.3946 102.115C75.3946 102.115 70.8442 100.362 70.8993 103.022C70.9544 105.681 72.0087 106.954 71.6757 107.342C71.3426 107.73 71.841 110.056 71.841 110.056C71.841 110.056 77.989 110.056 80.8139 111.329C83.6387 112.601 94.0516 115.15 95.3814 115.926C96.7112 116.703 101.642 120.184 101.642 120.184L102.085 113.592C102.085 113.592 96.9892 109.383 88.6273 107.224C80.2654 105.065 75.3946 102.115 75.3946 102.115Z" fill="#11171D"/>
<path d="M75.3946 101.781C75.3946 101.781 70.8442 100.028 70.8993 102.688C70.9544 105.347 72.0087 106.62 71.6757 107.008C71.3426 107.396 71.841 109.722 71.841 109.722C71.841 109.722 77.989 109.722 80.8139 110.997C83.6387 112.272 94.0516 114.819 95.3814 115.592C96.7112 116.366 101.642 119.85 101.642 119.85L102.09 113.278C102.09 113.278 96.9942 109.069 88.6323 106.91C80.2704 104.751 75.3946 101.781 75.3946 101.781Z" fill="#FF748E"/>
<path opacity="0.1" d="M89.1307 117.645C89.1307 117.645 97.8256 127.058 97.3824 129.665C96.9391 132.272 89.1307 117.645 89.1307 117.645Z" fill="#11171D"/>
<path opacity="0.1" d="M75.0064 151.651C75.0064 151.651 68.6329 157.524 66.7547 157.857C64.8765 158.19 68.1947 159.297 70.3534 158.413C72.5121 157.529 77.115 155.202 77.115 155.202L75.0064 151.651Z" fill="#11171D"/>
<path d="M122.027 196.007H107.164C105.086 194.204 103.12 192.533 101.868 191.529C99.8641 189.921 98.4191 187.555 97.4976 185.651C97.2897 185.218 97.1094 184.812 96.9566 184.444C96.6831 183.81 96.4423 183.162 96.2354 182.504L107.242 175.967C107.85 176.485 108.422 177.044 108.952 177.64L109.085 177.793C109.696 178.514 110.234 179.333 110.282 180.004C110.337 180.786 112.511 183.808 114.732 186.711C116.986 189.663 119.295 192.486 119.448 192.676C119.448 192.676 119.828 193.194 120.449 193.991C120.888 194.567 121.429 195.258 122.027 196.007Z" fill="#FFCCD0"/>
<path opacity="0.1" d="M101.843 69.1291C101.314 70.3212 100.841 71.5583 100.771 72.8856C100.573 76.7172 100.893 85.2844 96.6511 87.2077C94.55 88.1543 92.3011 86.0758 89.9972 86.0257C88.3393 85.9906 86.8192 87.0424 85.8075 88.3572C84.7957 89.6719 84.1672 91.2321 83.4334 92.7197C82.7655 94.0699 81.9961 95.3675 81.1319 96.6013C80.8736 96.979 80.5891 97.338 80.2805 97.6757C77.6937 96.5842 75.3902 94.9165 73.5455 92.7999C71.7008 90.6833 70.3636 88.1735 69.6358 85.4618C68.908 82.7502 68.8088 79.9081 69.3458 77.1523C69.8827 74.3965 71.0417 71.7995 72.7343 69.5594C74.4269 67.3194 76.6085 65.4952 79.1129 64.2259C81.6173 62.9567 84.3783 62.2759 87.1857 62.2353C89.9931 62.1948 92.7726 62.7956 95.3126 63.992C97.8526 65.1884 100.086 66.9489 101.843 69.1391V69.1291Z" fill="#11171D"/>
<path d="M100.438 72.209C100.237 76.0406 100.56 84.6078 96.3155 86.5286C94.2144 87.4752 91.9655 85.3992 89.6616 85.3491C88.0037 85.3115 86.4861 86.3658 85.4719 87.6781C84.4576 88.9903 83.8341 90.553 83.0978 92.0431C82.4297 93.3932 81.6603 94.6908 80.7963 95.9248C80.2805 96.656 79.7095 97.3898 78.9156 97.8005C77.5332 98.5217 75.8579 98.116 74.3753 97.6527C72.452 97.0467 70.5571 96.3639 68.6905 95.6042C68.7334 95.3224 68.7551 95.0378 68.7556 94.7527C68.7006 94.8579 68.6405 94.9556 68.5803 95.0608L68.4626 95.2661C68.2498 95.6418 68.0419 96.0174 67.8516 96.4031C67.779 96.5508 67.7088 96.7036 67.6462 96.8564C67.3944 97.4249 67.2362 98.0304 67.1779 98.6494C67.0502 100.32 67.8741 101.905 68.6054 103.408C71.4177 109.22 73.1557 116.017 71.0396 122.115C70.123 124.767 68.5353 127.123 67.3758 129.685C65.3489 134.223 64.7523 139.27 65.6653 144.155C66.2438 147.19 67.4033 150.196 67.1178 153.273C66.617 158.57 62.0491 162.512 57.4738 165.221C55.002 166.679 51.9768 167.976 49.3523 166.824C51.0252 164.871 51.4559 162.169 51.8165 159.619C52.8032 152.666 53.7924 145.709 54.7841 138.748C55.1798 135.979 55.5747 133.209 55.9687 130.439C56.7049 125.235 57.4512 119.974 56.9904 114.737C56.6549 110.878 55.7082 106.781 57.3811 103.287C58.2651 101.437 59.8403 99.9041 60.3312 97.9107C60.7344 96.2904 60.3587 94.5674 60.6242 92.9171C60.7695 92.1662 61.0154 91.4384 61.3554 90.7534C61.7884 89.8238 62.3535 88.9617 63.0333 88.194C62.3622 87.9986 61.7361 87.7307 61.3554 87.1697C62.4323 86.4685 62.5951 84.8883 62.1067 83.7013C61.6184 82.5142 60.6417 81.6102 59.7627 80.6735C58.8837 79.7369 58.0372 78.6451 57.927 77.3679C57.7142 74.9362 60.1433 73.053 60.5716 70.6538C61.0048 68.2121 59.2919 65.838 59.4296 63.3663C59.5899 60.3787 62.3346 58.2074 65.0443 56.9478C69.1333 55.0549 73.6502 54.2773 78.1368 54.6939C81.788 55.0395 85.3216 56.1689 88.9629 56.6072C91.1592 56.8576 93.3855 56.8827 95.5667 57.2683C97.748 57.654 99.9342 58.4679 101.469 60.0681C105.516 64.2879 100.668 67.7614 100.438 72.209Z" fill="#FFE0D0"/>
<path opacity="0.1" d="M97.0518 185.654C95.7746 185.101 93.4506 185.431 89.4613 184.217C85.4719 183.002 84.7031 177.513 84.7031 177.513V177.495C84.6555 177.37 84.2849 176.554 81.7756 173.694C79.0033 170.536 73.0105 154.586 73.0105 154.586C73.0105 154.586 67.6964 148.879 67.8642 146.775C68.0319 144.671 66.92 139.074 67.0302 132.813C67.1404 126.553 78.9933 122.401 78.9933 122.401C101.815 118.356 96.4408 144.666 95.8322 146.66C95.2237 148.653 98.3816 154.037 98.3816 154.037C97.9358 156.381 100.21 160.01 100.21 160.01C100.21 160.01 100.761 163.221 100.873 164.44C100.88 164.497 100.892 164.552 100.911 164.606C101.277 165.755 104.257 166.797 105.469 167.43C106.743 168.097 110.843 173.912 110.843 173.912C111.727 178.181 98.324 186.215 97.0518 185.654Z" fill="#11171D"/>
<path d="M97.7154 184.651C96.4407 184.096 94.1142 184.429 90.1274 183.211C86.1405 181.994 85.3692 176.51 85.3692 176.51V176.492C85.3241 176.365 84.951 175.551 82.4417 172.691C79.6694 169.533 73.6766 153.581 73.6766 153.581C73.6766 153.581 68.3625 147.876 68.5278 145.772C68.693 143.669 67.5861 138.071 67.6963 131.816C67.8065 125.56 79.6519 121.41 79.6519 121.41C102.474 117.366 97.0994 143.676 96.4908 145.669C95.8823 147.663 99.0402 153.047 99.0402 153.047C98.5944 155.391 100.868 159.02 100.868 159.02C100.868 159.02 101.419 162.23 101.534 163.45C101.539 163.506 101.55 163.562 101.57 163.615C101.935 164.765 104.915 165.807 106.13 166.44C107.402 167.104 111.504 172.921 111.504 172.921C112.393 177.184 98.9901 185.217 97.7154 184.651Z" fill="#FF748E"/>
<path opacity="0.1" d="M80.1027 135.147C80.1027 135.147 90.0723 145.666 92.6743 145.666C95.2763 145.666 80.1027 135.147 80.1027 135.147Z" fill="#11171D"/>
<path d="M97.7154 184.653C96.4407 184.097 94.1142 184.43 90.1274 183.213C86.1405 181.996 85.3692 176.511 85.3692 176.511V176.494C88.0112 174.741 94.7027 169.79 97.3398 167.979C99.1955 166.709 100.711 164.844 101.597 163.606C101.963 164.756 104.943 165.798 106.157 166.431C107.43 167.095 111.532 172.912 111.532 172.912C112.393 177.185 98.9901 185.219 97.7154 184.653Z" fill="#FF748E"/>
<g opacity="0.1">
<path d="M61.3705 87.197C61.383 87.217 61.4005 87.2346 61.4155 87.2546C61.4907 87.1594 61.5683 87.0643 61.6484 86.9741C61.5631 87.0571 61.47 87.1317 61.3705 87.197Z" fill="#11171D"/>
<path d="M67.1804 98.6766C67.2856 97.2867 68.0294 96.0621 68.7256 94.84C68.2698 94.6647 67.814 94.4869 67.3633 94.3016C67.4062 94.0206 67.428 93.7369 67.4284 93.4526C66.7247 94.7048 65.9583 95.9369 65.8507 97.3468C65.7229 99.0197 66.5468 100.602 67.2781 102.105C70.0929 107.915 71.8284 114.712 69.7123 120.812C68.7932 123.462 67.208 125.821 66.0485 128.383C64.0223 132.92 63.4266 137.966 64.3406 142.85C64.914 145.888 66.076 148.89 65.7905 151.968C65.2897 157.265 60.7243 161.207 56.1465 163.914C54.2758 165.021 52.0895 166.035 49.9984 165.962C49.8048 166.274 49.5889 166.571 49.3523 166.851C51.9793 168.011 55.002 166.706 57.4738 165.244C62.0541 162.539 66.6295 158.607 67.1304 153.3C67.4158 150.223 66.2538 147.22 65.6779 144.182C64.7636 139.299 65.3576 134.253 67.3808 129.715C68.5328 127.156 70.1355 124.794 71.0446 122.144C73.1607 116.044 71.4227 109.247 68.6104 103.437C67.8816 101.925 67.0527 100.349 67.1804 98.6766Z" fill="#11171D"/>
<path d="M101.464 60.0982C101.218 59.8455 100.954 59.6111 100.673 59.397C103.708 63.3337 99.3257 66.6795 99.1078 70.9168C98.9125 74.7484 99.233 83.3181 94.9882 85.2364C92.8896 86.1855 90.6383 84.1069 88.3368 84.0569C86.6765 84.0218 85.1589 85.0761 84.1446 86.3884C83.1304 87.7006 82.5068 89.2633 81.773 90.7509C81.1036 92.1008 80.3335 93.3984 79.4691 94.6325C78.9682 95.3663 78.3822 96.0976 77.5858 96.5108C76.2085 97.2295 74.5331 96.8263 73.048 96.3605C71.6039 95.9064 70.1731 95.4055 68.7557 94.8579C68.7527 95.1188 68.731 95.379 68.6906 95.6368C70.5588 96.3981 72.4545 97.0809 74.3778 97.6853C75.8604 98.1511 77.5358 98.5543 78.9156 97.8355C79.7095 97.4223 80.2855 96.6886 80.7989 95.9548C81.6639 94.7224 82.4333 93.4255 83.1003 92.0756C83.8366 90.5881 84.4576 89.0229 85.4744 87.7106C86.4911 86.3984 88.0063 85.3466 89.6641 85.3816C91.9681 85.4317 94.2194 87.5103 96.318 86.5612C100.563 84.6429 100.24 76.0731 100.438 72.2416C100.668 67.7864 105.516 64.3154 101.464 60.0982Z" fill="#11171D"/>
</g>
<path opacity="0.1" d="M68.4651 95.2684C68.2523 95.644 68.0444 96.0197 67.8541 96.4053C67.7815 96.5531 67.7113 96.7058 67.6487 96.8586C66.3365 95.5363 63.141 92.3934 61.3579 91.4193C61.7914 90.49 62.3565 89.628 63.0358 88.8599C63.0358 88.8599 67.2856 91.1062 68.4651 95.2684Z" fill="#11171D"/>
<path d="M68.5828 95.0631C67.5986 90.6079 63.0358 88.1963 63.0358 88.1963C62.356 88.964 61.7908 89.8261 61.3579 90.7557C63.2386 91.785 66.7046 95.2359 67.8541 96.4054L68.5828 95.0631Z" fill="#FF748E"/>
</g>
<defs>
<linearGradient id="paint0_linear_119_3145" x1="182.822" y1="23.893" x2="182.822" y2="19.29" gradientUnits="userSpaceOnUse">
<stop stop-color="#808080" stop-opacity="0.25"/>
<stop offset="0.54" stop-color="#808080" stop-opacity="0.12"/>
<stop offset="1" stop-color="#808080" stop-opacity="0.1"/>
</linearGradient>
<linearGradient id="paint1_linear_119_3145" x1="140.95" y1="196.007" x2="140.95" y2="0.000214447" gradientUnits="userSpaceOnUse">
<stop stop-color="#808080" stop-opacity="0.25"/>
<stop offset="0.54" stop-color="#808080" stop-opacity="0.12"/>
<stop offset="1" stop-color="#808080" stop-opacity="0.1"/>
</linearGradient>
<clipPath id="clip0_119_3145">
<rect width="272" height="196.004" fill="white"/>
</clipPath>
</defs>
</svg>
